<?xml version="1.0" encoding="iso-8859-1"?>
<!-- Uploaded to: SVG Repo, www.svgrepo.com, Generator: SVG Repo Mixer Tools -->
<svg fill="#000000" height="800px" width="800px" version="1.1" id="Layer_1" xmlns="http://www.w3.org/2000/svg" xmlns:xlink="http://www.w3.org/1999/xlink" 
	 viewBox="0 0 512 512" xml:space="preserve">
<g>
	<g>
		<path d="M490.667,426.667h-64v-384c0-11.776-9.536-21.333-21.333-21.333c-11.797,0-21.333,9.557-21.333,21.333V320h-21.333
			v-21.333C362.667,150.976,348.053,0,239.808,0H42.667C30.869,0,21.333,9.557,21.333,21.333s9.536,21.333,21.333,21.333H60.48
			L41.259,167.509v0.043L24.363,277.333h-3.029C9.536,277.333,0,286.891,0,298.667v128C0,438.443,9.536,448,21.333,448
			c0,35.285,28.715,64,64,64s64-28.715,64-64H192c0,35.285,28.715,64,64,64s64-28.715,64-64h21.333
			c11.797,0,21.333-9.557,21.333-21.333H384V448c0,11.776,9.536,21.333,21.333,21.333h85.333c11.797,0,21.333-9.557,21.333-21.333
			S502.464,426.667,490.667,426.667z M85.333,469.333C73.557,469.333,64,459.755,64,448c0-4.693,1.835-8.832,4.416-12.352
			c8.171-10.901,25.664-10.901,33.835,0c2.581,3.52,4.416,7.659,4.416,12.352C106.667,459.755,97.109,469.333,85.333,469.333z
			 M128,277.333H67.541l8.064-52.459l4.608-29.995C107.776,203.136,128,228.779,128,258.795V277.333z M256,469.333
			c-11.776,0-21.333-9.579-21.333-21.333c0-4.693,1.835-8.832,4.416-12.352c8.171-10.901,25.664-10.901,33.835,0
			c2.581,3.52,4.416,7.659,4.416,12.352C277.333,459.755,267.776,469.333,256,469.333z M264.832,213.333l6.251-6.251
			c8.341-8.341,8.341-21.824,0-30.165c-8.341-8.341-21.824-8.341-30.165,0l-42.667,42.667c-8.341,8.341-8.341,21.824,0,30.165
			c4.16,4.16,9.621,6.251,15.083,6.251c5.461,0,10.923-2.091,15.083-6.251l6.251-6.251l33.835,33.835h-97.835v-18.539
			c0-51.221-35.989-94.485-83.968-106.112l16.939-110.016h136.171c35.563,0,76.053,26.816,79.829,225.451L264.832,213.333z"/>
	</g>
</g>
</svg>