<?xml version="1.0" encoding="UTF-8" standalone="no"?>
<svg
   version="1.1"
   x="0px"
   y="0px"
   viewBox="0 0 500 625"
   enable-background="new 0 0 500 500"
   xml:space="preserve"
   id="svg170"
   sodipodi:docname="noun-scorpion-3662398.svg"
   inkscape:version="1.2.1 (9c6d41e, 2022-07-14)"
   xmlns:inkscape="http://www.inkscape.org/namespaces/inkscape"
   xmlns:sodipodi="http://sodipodi.sourceforge.net/DTD/sodipodi-0.dtd"
   xmlns="http://www.w3.org/2000/svg"
   xmlns:svg="http://www.w3.org/2000/svg"><defs
     id="defs174" /><sodipodi:namedview
     id="namedview172"
     pagecolor="#ffffff"
     bordercolor="#000000"
     borderopacity="0.25"
     inkscape:showpageshadow="2"
     inkscape:pageopacity="0.0"
     inkscape:pagecheckerboard="0"
     inkscape:deskcolor="#d1d1d1"
     showgrid="false"
     inkscape:zoom="0.3776"
     inkscape:cx="233.05085"
     inkscape:cy="312.5"
     inkscape:window-width="1309"
     inkscape:window-height="456"
     inkscape:window-x="0"
     inkscape:window-y="38"
     inkscape:window-maximized="0"
     inkscape:current-layer="svg170" /><g
     id="g164"><g
       id="g162"><path
         d="M217.12,385.73c10.7-4.69,29.48-14.92,44.99-35.45c0.55-0.73,1.08-1.46,1.61-2.18c-12.31,1.5-23.25-0.31-31.54-2.7    c-1.48,2.02-3.16,4.06-5.1,6.04c-5.75,5.91-11.96,9.67-17.39,12.1c2.09,2.74,4.01,6.01,5.38,9.91    C216.46,377.42,217.12,381.57,217.12,385.73z"
         id="path132" /><path
         d="M118.3,380.42c4.46-2.34,14.72-6.92,28.14-5.89c4.65,0.36,8.73,1.32,12.16,2.46c3.81-2.91,7.57-6.48,10.97-10.9    c2.01-2.6,3.67-5.21,5.05-7.75c-8.89-2.03-19.7-2.46-30.96,1.82C129.59,365.52,121.59,375.65,118.3,380.42z"
         id="path134" /><path
         d="M75.96,355.3c15.01-7.34,20.98-15.82,23.67-22.21c0.84-2,4.91-7.2,5.27-17.71c-4.8,2.79-9.95,6.15-15.24,10.2    c-3.54,2.71-6.74,5.44-9.65,8.11c0.13,1.71,0.18,3.54,0.08,5.5C79.7,346.45,77.52,352.04,75.96,355.3z"
         id="path136" /><path
         d="M90.24,284.59c-24.05-1.46-45.18,13.9-50.34,35.01c-4.14,16.92,2.5,35.38,16.84,47.2c-0.56-3.18-2.55-16.45,5.76-29.02    c5.27-7.96,12.21-11.91,15.69-13.59c0,0.01,0.01,0.03,0.01,0.04c3.45-2.6,7.82-5.36,13.13-7.73c4.89-2.18,9.51-3.53,13.55-4.38    c-0.01-0.25-0.01-0.48-0.02-0.73c-0.08-1.5-0.12-3.92,0.29-6.84c-1.67-4.36-4.14-9.3-7.85-14.21c-2-2.64-4.11-4.93-6.12-6.89    C90.86,283.84,90.53,284.23,90.24,284.59z"
         id="path138" /><path
         d="M197.52,367.44c-0.38,0.08-0.73,0.14-1.05,0.2c-1.24-0.85-7.72-5.13-17.14-8.04c-0.95,4.34-2.54,9.11-5.18,13.98    c-5.48,10.09-13.2,16.45-19.62,20.33c-0.76,0.62-1.55,1.22-2.38,1.82c-17.14,12.24-36.67,8.94-41.05,8.09    c9.79,22.87,34.15,36.06,58.42,31.79c18.49-3.26,33.61-16.07,40.34-33.03c1.13-5.68,1.36-12.9-1.56-20.4    C206.06,376.41,202.31,371.4,197.52,367.44z"
         id="path140" /><path
         d="M129.55,253.38c-16.69,8.23-28.26,18.82-35.41,26.7c3.69,2.22,7.72,5.15,11.45,8.82c1.31,1.28,2.5,2.59,3.61,3.9    c0.25-0.42,0.5-0.84,0.77-1.27c5.41-8.3,14.45-11.51,23.85-14.41c-1.17-3.64-2.27-7.92-3-11.97    C130.06,261.01,129.68,257.07,129.55,253.38z"
         id="path142" /><path
         d="M138.59,256.5c0.71,8.4,1.06,14.53,1.17,18.96c6.92-1.65,16.65-3.02,28.51-1.81c-0.64,3.34-1.21,8.48-0.27,14.62    c1.01,6.61,3.36,11.62,5.08,14.68c-0.19,1.71-0.34,5.3,1.38,9.3c1.4,3.26,3.42,5.36,4.65,6.47c0.9-3,1.8-6.01,2.69-9.01    c9.28,3.73,18.55,7.47,27.83,11.2c-2.3,3.58-4.6,7.17-6.91,10.75c3.53-0.54,7.81-1.49,12.5-3.19c5.22-1.9,9.47-4.19,12.72-6.24    c2.33,0.19,4.7,0.36,7.12,0.51c2.35,0.14,4.65,0.26,6.92,0.35c-0.7,3.47-2.44,10.45-7.01,18.08c4.31-0.15,9.06-0.48,14.18-1.06    c8.13-0.92,15.53-2.32,21.89-3.68c8.81-16.11,11.71-30.81,12.82-38.75c13.7-11.35,32.12-28.58,50.17-52.61    c8.41-11.2,19.47-25.92,28.53-46.11c7.7-17.18,36.66-81.73,6.44-118.15c-16.75-20.19-44-22.47-54.56-23.35    c-55.24-4.62-93.55,38.58-98.91,44.82c-8.51,0.66-19.7,2.94-24.71,11.1c-6.28,10.24,2.39,21.23-2.5,34.77    c-2.42,6.72-8.6,15.21-25.5,22.08c9.11,0.11,33.56-0.87,52.82-18.28c6.4-5.79,18.34-16.58,17.61-31.82    c-0.39-8.17-4.28-14.42-6.9-17.88c3.97,1.65,7.94,3.3,11.91,4.95c6.76-3.95,13.52-7.89,20.28-11.84    c-1.96-5.94-3.92-11.87-5.88-17.81c5.13,4.46,10.27,8.92,15.4,13.38c3.09-1.73,8.5-4.25,15.7-5.01    c6.04-0.64,11.03,0.21,14.24,1.02c2.26-7.68,4.51-15.35,6.77-23.03c-1.23,14.98,2.03,20.63,5.51,22.89    c2.78,1.81,6.56,2.02,11.84,5.96c2.7,2.01,4.58,4.1,5.74,5.53c8.45-3.82,16.91-7.65,25.36-11.47    c-4.97,7.48-9.94,14.96-14.91,22.45c0.33,4.43,0.4,9.6-0.08,15.33c-0.38,4.49-1.04,8.56-1.8,12.15c2.08-0.89,10.81-4.36,20.4-0.59    c4.82,1.9,8,4.89,9.73,6.83c-4.64-0.16-10.2-0.01-16.42,0.87c-6.5,0.92-12.1,2.4-16.64,3.92c-1.96,3.36-4.84,7.51-9.02,11.62    c-6.66,6.56-13.62,10.1-18.24,11.98c6.44,0.75,16.85,2.93,26.88,10.11c12.2,8.73,19.15,21.51,17.79,22.75    c-1.42,1.3-10.76-11.05-28.26-19.41c-13.18-6.3-25.94-7.63-35.24-7.64c-6.97,1.52-14.28,3.36-21.87,5.59    c-13.16,3.86-25.07,8.26-35.68,12.77c9.97,0.29,35.27,2.42,58.85,20.59c13.11,10.1,21.01,21.56,25.49,29.44    c-13.03-10.62-25.03-17.97-34.14-22.9c-12.37-6.7-32.69-16.14-53.03-16.67c-4.31-0.11-8.62,0.17-13.38,1.67    c-8.23,2.59-13.33,7.4-19.44,13.29c-4.47,4.3-10.51,10.92-16.27,20.24c-8.41,0.29-21.72,1.64-36.89,7.21    C140.25,251.12,139.42,253.81,138.59,256.5z"
         id="path144" /><path
         d="M396.75,321.06c-0.45-18.8-4.44-34.12-8.05-44.55c-18.33-5.75-36.67-11.5-55-17.24c-5.26,6.78-10.52,13.56-15.78,20.34    c19.38,5.48,38.75,10.96,58.13,16.45c3.08,7.22,6.06,15.63,8.42,25.15c4.89,19.74,5.36,37.24,4.56,50.43    C392.82,360.41,397.26,342.83,396.75,321.06z"
         id="path146" /><path
         d="M418.26,272.03c7.39,17.23,10.42,33.08,11.66,45.2c1.78-10.77,3.2-27.43-0.51-47.15c-3.21-17.04-9.12-30.37-13.96-39.32    c-17.53-2.5-35.07-4.99-52.6-7.49c-4.92,6.9-9.84,13.79-14.76,20.69c19.59,2.15,39.18,4.31,58.76,6.46    C410.73,256.52,414.7,263.72,418.26,272.03z"
         id="path148" /><path
         d="M450.31,257.26c-0.1-9.78-1.42-24.7-7.75-41.54c-5.47-14.54-12.75-25.39-18.4-32.54c-15.05,0.2-30.1,0.41-45.15,0.61    c-3.06,7.02-6.13,14.05-9.19,21.07c16.6-1,33.2-2,49.8-3c4.37,4.79,8.98,10.53,13.41,17.31    C442.22,233.24,447.34,246.76,450.31,257.26z"
         id="path150" /><path
         d="M449.5,174.09c-6.6-12.32-14.37-21.13-20.26-26.83c-14.08,2.33-28.16,4.66-42.24,6.99c-1.21,6.26-2.43,12.51-3.64,18.77    c14.68-2.86,29.36-5.71,44.04-8.57c4.46,3.75,9.25,8.33,14,13.85c9.86,11.45,16.03,22.89,19.92,31.9    C460.08,201.49,457.13,188.35,449.5,174.09z"
         id="path152" /><path
         d="M161.49,236.67c5.67-7.77,11.34-15.55,17.01-23.32c3.73,0.27,7.46,0.54,11.19,0.8c6.52-5.33,13.04-10.65,19.55-15.98    c-12.6-0.22-25.19-0.45-37.79-0.67C168.14,210.56,164.82,223.62,161.49,236.67z"
         id="path154" /><path
         d="M201.7,189.46c4.04,0.63,8.09,1.26,12.13,1.89c4.17-1.06,8.33-2.13,12.5-3.19c8.38-2.81,16.76-5.61,25.15-8.42    c-13.97-2.37-27.94-4.75-41.92-7.12C206.94,178.23,204.32,183.84,201.7,189.46z"
         id="path156" /><path
         d="M244.91,172.52c4.04,0.63,8.09,1.26,12.13,1.89c4.75-1.18,9.58-2.33,14.49-3.46c5.98-1.37,11.87-2.65,17.66-3.84    c-9.69-2.74-19.38-5.48-29.06-8.22C255.06,163.43,249.99,167.98,244.91,172.52z"
         id="path158" /><path
         d="M303.8,163.05c6.79-0.98,11.16-4.75,12.72-6.24c-4-1.31-7.99-2.62-11.99-3.93c-5.94,1.96-11.87,3.92-17.81,5.88    C288.16,159.79,294.8,164.35,303.8,163.05z"
         id="path160" /></g></g></svg>
