<svg xmlns="http://www.w3.org/2000/svg" xmlns:xlink="http://www.w3.org/1999/xlink" version="1.1" x="0px" y="0px" viewBox="0 0 27 33.75" style="enable-background:new 0 0 27 27;" xml:space="preserve"><g><g><path d="M19.1939087,12.4101048l-6.9499512,6.9300537c-3.5899658-0.4900513-6.8200679-2.0100098-9.6400146-4.5100098    c-0.4200439-0.3699951-0.6800538-0.9100342-0.6900636-1.4800415c-0.0198975-0.5699463,0.2000734-1.1300049,0.6000978-1.539978    l9.6599121-9.6599731c0.2600098-0.2500001,0.6201172-0.4000245,0.9801025-0.4000245h0.0098877    c0.3701172,0,0.7301025,0.1599731,0.9901123,0.419983c1.6800537,1.75,2.9499512,3.6799924,3.8199463,5.7600098    C18.5640259,9.3501072,18.973938,10.8401585,19.1939087,12.4101048z"/></g><g><path d="M23.8040161,18.6701145l-4.3200684-3.7299805c-0.1005936,0.1003628-3.5249653,3.5174999-4.6999512,4.6900024    l3.7299805,4.3300171c1.4301395,1.6288509,3.9519043,1.7399311,5.4799805,0.1900024    C25.5133228,22.6306648,25.4485245,20.1037197,23.8040161,18.6701145z M22.0440063,22.2001438    c-0.3951664,0.4737186-1.3748188,0.4737568-1.7700195,0c-0.445303-0.444809-0.5606461-1.1590271,0-1.7700195    c0.4056969-0.4863415,1.3707237-0.4786701,1.7700195,0C22.5972366,20.9839172,22.4692039,21.8100185,22.0440063,22.2001438z"/></g></g><text x="0" y="42" fill="#000000" font-size="5px" font-weight="bold" font-family="'Helvetica Neue', Helvetica, Arial-Unicode, Arial, Sans-serif">Created by Brickclay</text><text x="0" y="47" fill="#000000" font-size="5px" font-weight="bold" font-family="'Helvetica Neue', Helvetica, Arial-Unicode, Arial, Sans-serif">from the Noun Project</text></svg>