<?xml version="1.0" encoding="UTF-8" standalone="no"?>
<svg
   version="1.1"
   x="0px"
   y="0px"
   viewBox="0 0 100 125"
   id="svg140"
   sodipodi:docname="noun-keyboard-typing-621025.svg"
   inkscape:version="1.2.1 (9c6d41e, 2022-07-14)"
   xmlns:inkscape="http://www.inkscape.org/namespaces/inkscape"
   xmlns:sodipodi="http://sodipodi.sourceforge.net/DTD/sodipodi-0.dtd"
   xmlns="http://www.w3.org/2000/svg"
   xmlns:svg="http://www.w3.org/2000/svg">
  <defs
     id="defs144" />
  <sodipodi:namedview
     id="namedview142"
     pagecolor="#ffffff"
     bordercolor="#000000"
     borderopacity="0.25"
     inkscape:showpageshadow="2"
     inkscape:pageopacity="0.0"
     inkscape:pagecheckerboard="0"
     inkscape:deskcolor="#d1d1d1"
     showgrid="false"
     inkscape:zoom="1.888"
     inkscape:cx="46.610169"
     inkscape:cy="62.5"
     inkscape:window-width="1309"
     inkscape:window-height="456"
     inkscape:window-x="0"
     inkscape:window-y="38"
     inkscape:window-maximized="0"
     inkscape:current-layer="svg140" />
  <g
     transform="translate(0,-952.36218)"
     id="g134">
    <path
       style="font-size:medium;font-style:normal;font-variant:normal;font-weight:normal;font-stretch:normal;text-indent:0;text-align:start;text-decoration:none;line-height:normal;letter-spacing:normal;word-spacing:normal;text-transform:none;direction:ltr;block-progression:tb;writing-mode:lr-tb;text-anchor:start;baseline-shift:baseline;opacity:1;color:#000000;fill:#000000;fill-opacity:1;stroke:none;stroke-width:4;marker:none;visibility:visible;display:inline;overflow:visible;enable-background:accumulate;font-family:Sans;-inkscape-font-specification:Sans"
       d="M 8 31 A 2.0002 2.0002 0 0 0 6 33 L 6 67 A 2.0002 2.0002 0 0 0 8 69 L 92 69 A 2.0002 2.0002 0 0 0 94 67 L 94 33 A 2.0002 2.0002 0 0 0 92.1875 31 A 2.0002 2.0002 0 0 0 92 31 L 8 31 z M 10 35 L 90 35 L 90 65 L 10 65 L 10 35 z M 13 38 L 13 43 L 23 43 L 23 38 L 13 38 z M 28 38 L 28 43 L 38 43 L 38 38 L 28 38 z M 43 38 L 43 43 L 53 43 L 53 38 L 43 38 z M 58 38 L 58 43 L 68 43 L 68 38 L 58 38 z M 73 38 L 73 43 L 77 43 L 77 38 L 73 38 z M 81 38 L 81 47 L 73 47 L 73 52 L 87 52 L 87 38 L 81 38 z M 13 47 L 13 52 L 23 52 L 23 47 L 13 47 z M 28 47 L 28 52 L 38 52 L 38 47 L 28 47 z M 43 47 L 43 52 L 53 52 L 53 47 L 43 47 z M 58 47 L 58 52 L 68 52 L 68 47 L 58 47 z M 13 56 L 13 61 L 23 62 L 23 56 L 13 56 z M 28 56 L 28 62 L 72 62 L 72 56 L 28 56 z M 77 56 L 77 62 L 87 61 L 87 56 L 77 56 z "
       transform="translate(0,952.36218)"
       id="path132" />
  </g>
</svg>
