<?xml version="1.0" encoding="UTF-8" standalone="no"?>
<!-- Created with Inkscape (http://www.inkscape.org/) -->

<svg
   version="1.1"
   id="svg132"
   width="1333.3333"
   height="1333.3333"
   viewBox="0 0 1333.3333 1333.3333"
   sodipodi:docname="uberIcon.svg"
   inkscape:version="1.2.1 (9c6d41e, 2022-07-14)"
   xmlns:inkscape="http://www.inkscape.org/namespaces/inkscape"
   xmlns:sodipodi="http://sodipodi.sourceforge.net/DTD/sodipodi-0.dtd"
   xmlns="http://www.w3.org/2000/svg"
   xmlns:svg="http://www.w3.org/2000/svg">
  <defs
     id="defs136">
    <clipPath
       clipPathUnits="userSpaceOnUse"
       id="clipPath150">
      <path
         d="M 0,1000 H 1000 V 0 H 0 Z"
         id="path148" />
    </clipPath>
  </defs>
  <sodipodi:namedview
     id="namedview134"
     pagecolor="#ffffff"
     bordercolor="#000000"
     borderopacity="0.25"
     inkscape:showpageshadow="2"
     inkscape:pageopacity="0.0"
     inkscape:pagecheckerboard="0"
     inkscape:deskcolor="#d1d1d1"
     showgrid="false"
     inkscape:zoom="0.12739464"
     inkscape:cx="643.66917"
     inkscape:cy="627.96993"
     inkscape:window-width="1419"
     inkscape:window-height="456"
     inkscape:window-x="0"
     inkscape:window-y="38"
     inkscape:window-maximized="0"
     inkscape:current-layer="g140">
    <inkscape:page
       x="0"
       y="0"
       id="page138"
       width="1333.3333"
       height="1333.3333" />
  </sodipodi:namedview>
  <g
     id="g140"
     inkscape:groupmode="layer"
     inkscape:label="Page 1"
     transform="matrix(1.3333333,0,0,-1.3333333,0,1333.3333)">
    <path
       d="M 0,0 H 1000 V 1000 H 0 Z"
       style="fill:#000000;fill-opacity:1;fill-rule:nonzero;stroke:none"
       id="path142" />
    <g
       id="g144">
      <g
         id="g146"
         clip-path="url(#clipPath150)">
        <g
           id="g152"
           transform="translate(742.6787,327.543)">
          <path
             d="M 0,0 H -41.451 V 35.916 H 0 c 7.544,0 12.607,-1.496 15.19,-4.488 2.583,-2.994 3.792,-7.483 3.628,-13.469 C 18.982,11.891 17.773,7.381 15.19,4.428 12.607,1.477 7.544,0 0,0 M 46.494,-61.623 19.803,-15.99 c 6.806,1.558 12.464,4.941 16.974,10.148 4.51,5.207 6.847,13.305 7.011,24.293 C 43.624,32.555 39.4,42.23 31.119,47.479 22.837,52.727 11.234,55.227 -3.69,54.98 h -50.799 c -4.1,0 -7.052,-0.654 -8.856,-1.966 -1.804,-1.313 -2.706,-3.403 -2.706,-6.274 V -60.885 c 0,-1.886 0.984,-2.828 2.951,-2.828 h 21.649 v 34.686 c -0.082,3.607 1.046,6.273 3.383,7.994 2.337,1.722 6.17,2.584 11.5,2.584 h 22.017 l 23.985,-43.297 c 0.328,-0.656 0.738,-1.149 1.23,-1.475 0.492,-0.328 1.189,-0.492 2.091,-0.492 h 22.632 c 0.738,0.082 1.169,0.348 1.292,0.799 0.123,0.451 0.061,0.881 -0.185,1.291 m -346.122,16.728 h -44.034 v 22.018 c -0.082,3.607 1.046,6.272 3.383,7.994 2.337,1.723 6.17,2.584 11.5,2.584 h 29.151 c 6.888,0 11.623,-1.353 14.206,-4.06 2.583,-2.705 3.793,-6.805 3.629,-12.299 0.164,-5.412 -1.046,-9.471 -3.629,-12.178 -2.583,-2.705 -7.318,-4.059 -14.206,-4.059 m -44.034,81.057 h 39.483 c 6.396,0 10.803,-1.25 13.222,-3.752 2.419,-2.5 3.588,-6.334 3.506,-11.5 0.082,-5.166 -1.087,-9.019 -3.506,-11.562 -2.419,-2.541 -6.826,-3.813 -13.222,-3.813 h -39.483 z m 67.404,-37.269 c 4.838,2.543 8.343,6.068 10.517,10.578 2.173,4.509 3.259,9.634 3.259,15.375 -0.411,12.793 -4.9,21.115 -13.468,24.968 -8.57,3.856 -18.594,5.577 -30.074,5.166 h -50.553 c -4.182,0 -7.175,-0.654 -8.979,-1.966 -1.804,-1.313 -2.665,-3.403 -2.583,-6.274 V -56.703 c 0,-2.377 0.676,-4.141 2.03,-5.289 1.352,-1.147 3.629,-1.721 6.826,-1.721 h 62.238 c 11.972,-0.082 21.607,2.44 28.904,7.565 7.299,5.125 11.071,13.548 11.317,25.275 0,7.217 -1.578,13.51 -4.736,18.881 -3.157,5.371 -8.056,9 -14.698,10.885 m 157.686,36.777 c 0.902,0 1.599,0.164 2.091,0.492 0.492,0.328 0.902,0.82 1.23,1.477 l 6.396,15.99 c 0.328,0.902 0,1.351 -0.984,1.351 h -89.544 c -4.1,0 -7.053,-0.654 -8.856,-1.966 -1.804,-1.313 -2.706,-3.403 -2.706,-6.274 V -56.703 c 0,-2.377 0.676,-4.141 2.029,-5.289 1.354,-1.147 3.629,-1.721 6.827,-1.721 h 83.517 c 0.902,0 1.599,0.164 2.091,0.492 0.492,0.326 0.902,0.819 1.23,1.475 l 6.396,15.867 c 0.328,0.984 0,1.477 -0.984,1.477 H -186.1 v 21.033 c -0.082,3.607 1.026,6.273 3.322,7.994 2.296,1.723 6.109,2.584 11.439,2.584 h 33.087 c 0.901,0 1.599,0.164 2.091,0.492 0.492,0.328 0.902,0.819 1.229,1.475 l 6.151,15.252 c 0.328,0.984 0,1.476 -0.985,1.476 H -186.1 V 35.67 Z m -322.506,16.482 v -66.666 c 0.082,-11.07 -2.522,-19.105 -7.811,-24.107 -5.289,-5.002 -13.652,-7.504 -25.091,-7.504 -11.44,0 -19.803,2.502 -25.092,7.504 -5.289,5.002 -7.893,13.037 -7.811,24.107 V 54.98 h -22.263 c -1.968,0.083 -2.952,-0.859 -2.952,-2.828 v -67.773 c 0.246,-18.367 5.617,-31.385 16.113,-39.053 10.496,-7.666 24.477,-11.377 41.943,-11.131 17.466,-0.246 31.468,3.465 42.005,11.131 10.537,7.668 15.928,20.686 16.174,39.053 V 54.98 h -22.263 c -1.968,0.083 -2.952,-0.859 -2.952,-2.828"
             style="fill:#ffffff;fill-opacity:1;fill-rule:nonzero;stroke:none"
             id="path154" />
        </g>
        <g
           id="g156"
           transform="translate(499.8535,737.4165)">
          <path
             d="m 0,0 c -63.473,0 -115.427,-49.281 -119.707,-111.667 h 86.04 v 22.499 c 0,1.559 1.276,2.835 2.835,2.835 h 61.664 c 1.559,0 2.834,-1.276 2.834,-2.835 v -61.664 c 0,-1.559 -1.275,-2.835 -2.834,-2.835 h -61.664 c -1.559,0 -2.835,1.276 -2.835,2.835 v 22.499 h -86.04 C -115.427,-190.719 -63.473,-240 0,-240 c 66.274,0 120,53.726 120,120 C 120,-53.726 66.274,0 0,0"
             style="fill:#ffffff;fill-opacity:1;fill-rule:nonzero;stroke:none"
             id="path158" />
        </g>
      </g>
    </g>
  </g>
</svg>
